<svg xmlns="http://www.w3.org/2000/svg" viewBox="0 0 24 30" x="0px" y="0px"><title>snowflake</title><path d="M15.8999,9.53674l3.89893,1.04431a.541.541,0,0,0,.12988.01661.50027.50027,0,0,0,.12891-.9834L17.12579,8.829l2.41864-1.39636a.49966.49966,0,1,0-.5-.86524l-2.419,1.39655.7857-2.9317a.50076.50076,0,0,0-.35351-.61328.5086.5086,0,0,0-.61231.35351l-1.0448,3.89868L12,10.6344V6.707l2.85352-2.85351a.5.5,0,0,0-.707-.707L12,5.293V2.5a.5.5,0,0,0-1,0V5.293L8.85352,3.14648a.5.5,0,0,0-.707.707L11,6.707V10.6344L7.59949,8.67114,6.55469,4.77246a.50007.50007,0,1,0-.96582.25977l.7857,2.9317-2.419-1.39655a.49966.49966,0,1,0-.5.86524L5.87421,8.829l-2.93183.78528a.50027.50027,0,0,0,.12891.9834.541.541,0,0,0,.12988-.01661L7.1001,9.53674,10.50067,11.5,7.1001,13.46326,3.20117,12.419a.50687.50687,0,0,0-.6123.35449.50056.50056,0,0,0,.35351.6123l2.93183.78528L3.45557,15.56738A.49975.49975,0,0,0,3.70605,16.5a.49288.49288,0,0,0,.24952-.06738l2.419-1.39655-.7857,2.9317a.50076.50076,0,0,0,.35351.61328.5411.5411,0,0,0,.12989.01661.50048.50048,0,0,0,.48242-.37012l1.0448-3.89868L11,12.3656V16.293L8.14648,19.14648a.5.5,0,1,0,.707.707L11,17.707V20.5a.5.5,0,0,0,1,0V17.707l2.14648,2.14649a.5.5,0,0,0,.707-.707L12,16.293V12.3656l3.40051,1.96326,1.0448,3.89868a.50048.50048,0,0,0,.48242.37012.5411.5411,0,0,0,.12989-.01661.50076.50076,0,0,0,.35351-.61328l-.7857-2.9317,2.419,1.39655A.49288.49288,0,0,0,19.294,16.5a.49975.49975,0,0,0,.25048-.93262L17.12579,14.171l2.93183-.78528a.50041.50041,0,0,0-.25879-.96679L15.8999,13.46326,12.49933,11.5Z"/><text x="0" y="39" fill="#000000" font-size="5px" font-weight="bold" font-family="'Helvetica Neue', Helvetica, Arial-Unicode, Arial, Sans-serif">Created by Travis Avery</text><text x="0" y="44" fill="#000000" font-size="5px" font-weight="bold" font-family="'Helvetica Neue', Helvetica, Arial-Unicode, Arial, Sans-serif">from the Noun Project</text></svg>