<svg xmlns="http://www.w3.org/2000/svg" data-name="Слой 1" viewBox="0 0 100 125" x="0px" y="0px"><title>door-ajar-open-driver-passenger</title><path d="M77.55,59.71V42.54l11,11A2.5,2.5,0,0,0,92.1,50L77.55,35.46v-21A14.52,14.52,0,0,0,63.05,0H36.95a14.52,14.52,0,0,0-14.5,14.5v21L7.9,50a2.5,2.5,0,1,0,3.54,3.54l11-11V59.71L7.9,74.25a2.5,2.5,0,1,0,3.54,3.54l11-11V85.5A14.52,14.52,0,0,0,36.95,100H63.05a14.52,14.52,0,0,0,14.5-14.5V66.78l11,11a2.5,2.5,0,0,0,3.54-3.54ZM72.55,70a9.51,9.51,0,0,1-9.5,9.5H36.95a9.51,9.51,0,0,1-9.5-9.5V40.5a9.51,9.51,0,0,1,9.5-9.5H63.05a9.51,9.51,0,0,1,9.5,9.5ZM36.95,5H63.05a9.51,9.51,0,0,1,9.5,9.5V29.57A14.42,14.42,0,0,0,63.05,26H36.95a14.42,14.42,0,0,0-9.5,3.57V14.5A9.51,9.51,0,0,1,36.95,5ZM63.05,95H36.95a9.51,9.51,0,0,1-9.5-9.5V80.93a14.42,14.42,0,0,0,9.5,3.57H63.05a14.42,14.42,0,0,0,9.5-3.57V85.5A9.51,9.51,0,0,1,63.05,95Z"/></svg>