<svg xmlns="http://www.w3.org/2000/svg" xmlns:xlink="http://www.w3.org/1999/xlink" version="1.1" x="0px" y="0px" viewBox="0 0 100 125" style="enable-background:new 0 0 100 100;" xml:space="preserve"><g><path d="M55.7,27H35c-2.2,0-5,1.3-5,3.5v8c0,2.2,2.8,4.5,5,4.5h21c2.2,0,3-2.3,3-4.5v-8C59,28.3,58,27,55.7,27z M55,39H34v-8h21V39   z"/><path d="M86.6,14.9c-0.9-0.6-2.2-0.4-2.8,0.5l-7.9,11.5c0,0,0,0,0,0c0,0,0,0,0,0c-0.1,0.1-0.1,0.2-0.2,0.4c-0.2,0.5-0.4,1-0.5,1.5   c0,0,0,0,0,0c-1.4,6-0.1,10.8,4.1,15.1c3.3,3.3,4.4,8.2,3,12.6c-1.3,4.1-4.9,7-9.1,7.8c-1,0.2-2.2,0.3-3.2,0.3v-37   C70,20.9,65.1,16,58.5,16h-26C25.9,16,20,20.9,20,27.5V70h-1c-3.3,0-7,2.2-7,5.5v4c0,3.3,3.7,6.5,7,6.5h53c3.3,0,5-3.2,5-6.5v-4   c0-3.3-1.9-5.5-5.3-5.5H70v-1.5c2,0,2.7-0.1,3.9-0.3c5.7-1,10.3-4.9,12.1-10.5c1.9-5.8,0.4-12.2-3.9-16.6c-2.2-2.2-3.2-4.4-3.5-7   c0.1,0,0.1,0,0.2,0.1c0.3,0.1,0.6,0.1,0.9,0.1c0.9,0,1.8-0.3,2.6-0.8c2.1-1.4,2.6-4.4,1.3-6.5l0,0c-0.5-0.7-1.1-1.2-1.8-1.6   l5.3-7.6C87.8,16.7,87.5,15.5,86.6,14.9z M71.5,74c1.1,0,1.5,0.4,1.5,1.5v4c0,1.1,0.1,2.5-1,2.5H19c-1.1,0-3-1.4-3-2.5v-4   c0-1.1,1.9-1.5,3-1.5h1.5h50H71.5z M24,70V27.5c0-4.4,4.1-7.5,8.5-7.5h26c4.4,0,7.5,3.1,7.5,7.5V70H24z M80.1,30.1   c-0.1,0.1-0.3,0.1-0.4,0.1c-0.1,0-0.3-0.1-0.4-0.3c-0.2-0.3-0.2-0.6,0-0.9l0,0c0-0.1,0.1-0.2,0.2-0.2c0.1-0.1,0.2-0.1,0.3-0.1   c0,0,0.1,0,0.1,0c0.1,0,0.3,0.1,0.4,0.3C80.5,29.4,80.4,29.9,80.1,30.1z"/></g></svg>