<?xml version="1.0" encoding="utf-8"?>
<!-- Generator: Adobe Illustrator 23.0.1, SVG Export Plug-In . SVG Version: 6.00 Build 0)  -->
<svg version="1.1"
	 id="Capa_1" xmlns:cc="http://creativecommons.org/ns#" xmlns:dc="http://purl.org/dc/elements/1.1/" xmlns:inkscape="http://www.inkscape.org/namespaces/inkscape" xmlns:rdf="http://www.w3.org/1999/02/22-rdf-syntax-ns#" xmlns:sodipodi="http://sodipodi.sourceforge.net/DTD/sodipodi-0.dtd" xmlns:svg="http://www.w3.org/2000/svg"
	 xmlns="http://www.w3.org/2000/svg" xmlns:xlink="http://www.w3.org/1999/xlink" x="0px" y="0px" viewBox="0 0 100 125"
	 style="enable-background:new 0 0 100 125;" xml:space="preserve">
<style type="text/css">
	.st0{fill-rule:evenodd;clip-rule:evenodd;}
</style>
<g transform="translate(0,-952.36218)">
	<path class="st0" d="M73.1,972c-7.4,0-13.4,6-13.4,13.4c0,4.5,2.2,8.4,5.6,10.9c-6.3,2.6-11.1,8.1-12.6,14.9
		c-2.9-2.8-6.4-5-10.2-6.4c5-3.1,8.4-8.6,8.4-14.8c0-9.6-7.8-17.4-17.4-17.4c-9.6,0-17.4,7.8-17.4,17.4c0,6.3,3.4,11.8,8.4,14.8
		c-10.7,3.7-18.5,14-18.5,26c0,1.1,0.9,2,2,2s2-0.9,2-2c0,0,0,0,0-0.1c0-12.7,10-23,22.5-23.5c0.3,0,0.7,0,1,0c0.3,0,0.7,0,1,0
		c12.5,0.5,22.5,10.8,22.5,23.5c0,1.1,0.9,2,2,2s2-0.9,2-2c0,0,0,0,0-0.1c0-5.7-1.7-11-4.7-15.4c0.1-9,7.2-16.3,16.2-16.7
		c0.2,0,0.4,0,0.7,0c0.2,0,0.4,0,0.7,0c9,0.3,16.2,7.7,16.2,16.9c0,1.1,0.9,2,2,2c1.1,0,2-0.9,2-2c0,0,0,0,0-0.1
		c0-8.7-5.4-16.3-13.1-19.4c3.4-2.4,5.6-6.4,5.6-10.9C86.5,978,80.5,972,73.1,972z M73.1,976c5.2,0,9.4,4.2,9.4,9.4
		c0,5-3.9,9-8.8,9.4c-0.2,0-0.4,0-0.6,0s-0.4,0-0.6,0c-4.9-0.3-8.8-4.4-8.8-9.4C63.7,980.1,67.9,976,73.1,976z M33.5,976.5
		c7.4,0,13.4,6,13.4,13.4c0,7.1-5.5,12.9-12.4,13.3c-0.3,0-0.6,0-0.9,0c-0.3,0-0.6,0-0.9,0c-7-0.5-12.4-6.3-12.4-13.3
		C20.1,982.5,26.1,976.5,33.5,976.5z"/>
</g>
</svg>
