<?xml version="1.0" encoding="utf-8"?>
<!-- Generator: Adobe Illustrator 23.0.1, SVG Export Plug-In . SVG Version: 6.00 Build 0)  -->
<svg version="1.1" id="Capa_1" xmlns="http://www.w3.org/2000/svg" xmlns:xlink="http://www.w3.org/1999/xlink" x="0px" y="0px"
	 viewBox="0 0 44 55" style="enable-background:new 0 0 44 55;" xml:space="preserve">
<g>
	<path d="M42,24c-0.6,0-1,0.4-1,1v13c0,0.6-0.4,1-1,1H4c-0.6,0-1-0.4-1-1V25c0-0.6-0.4-1-1-1s-1,0.4-1,1v13c0,1.7,1.3,3,3,3h36
		c1.7,0,3-1.3,3-3V25C43,24.4,42.6,24,42,24z"/>
	<path d="M41,10H3c-1.7,0-3,1.3-3,3v6.4c0,1.4,1,2.6,2.3,2.9L18,25.8V29c0,0.6,0.4,1,1,1h6c0.6,0,1-0.4,1-1v-3.2l15.7-3.5
		C43,22,44,20.8,44,19.4V13C44,11.3,42.7,10,41,10z M24,28h-4v-4h4V28z M42,19.4c0,0.5-0.3,0.9-0.8,1L26,23.8V23c0-0.6-0.4-1-1-1h-6
		c-0.6,0-1,0.4-1,1v0.8L2.8,20.4c-0.5-0.1-0.8-0.5-0.8-1V13c0-0.6,0.4-1,1-1h38c0.6,0,1,0.4,1,1V19.4z"/>
	<path d="M15,8c0.6,0,1-0.4,1-1V6c0-0.6,0.4-1,1-1h10c0.6,0,1,0.4,1,1v1c0,0.6,0.4,1,1,1s1-0.4,1-1V6c0-1.7-1.3-3-3-3H17
		c-1.7,0-3,1.3-3,3v1C14,7.6,14.4,8,15,8z"/>
</g>
</svg>
