<svg xmlns="http://www.w3.org/2000/svg" xmlns:xlink="http://www.w3.org/1999/xlink" version="1.1" x="0px" y="0px" viewBox="0 0 100 125" style="enable-background:new 0 0 100 100;" xml:space="preserve"><path d="M77,68.6V30.9c3.1-0.9,5.3-3.7,5.3-7.1c0-4.1-3.4-7.4-7.5-7.4s-7.5,3.3-7.5,7.4c0,3.5,2.4,6.4,5.7,7.2v16H52V31  c3.2-0.9,5.5-3.7,5.5-7.1c0-4.1-3.4-7.4-7.5-7.4s-7.5,3.3-7.5,7.4c0,3.4,2.3,6.3,5.5,7.1v16H28.5C28,47,27,46.9,27,46V31  c3.3-0.8,5.7-3.7,5.7-7.2c0-4.1-3.4-7.4-7.5-7.4s-7.5,3.3-7.5,7.4c0,3.3,2.2,6.1,5.3,7.1V46c0,2.9,2.3,5,5.5,5H48v17.5  c-3.2,0.9-5.5,3.7-5.5,7.1c0,4.1,3.4,7.4,7.5,7.4s7.5-3.3,7.5-7.4c0-3.4-2.3-6.3-5.5-7.1V51h21v17.4c-3.3,0.8-5.7,3.7-5.7,7.2  c0,4.1,3.4,7.4,7.5,7.4s7.5-3.3,7.5-7.4C82.3,72.3,80.1,69.5,77,68.6z M46.5,23.8c0-1.9,1.6-3.4,3.5-3.4s3.5,1.5,3.5,3.4  s-1.6,3.4-3.5,3.4S46.5,25.7,46.5,23.8z M21.7,23.8c0-1.9,1.6-3.4,3.5-3.4c1.9,0,3.5,1.5,3.5,3.4s-1.6,3.4-3.5,3.4  C23.3,27.2,21.7,25.7,21.7,23.8z M53.5,75.6c0,1.9-1.6,3.4-3.5,3.4s-3.5-1.5-3.5-3.4c0-1.9,1.6-3.4,3.5-3.4S53.5,73.7,53.5,75.6z   M71.3,23.8c0-1.9,1.6-3.4,3.5-3.4s3.5,1.5,3.5,3.4s-1.6,3.4-3.5,3.4S71.3,25.7,71.3,23.8z M74.8,79c-1.9,0-3.5-1.5-3.5-3.4  c0-1.9,1.6-3.4,3.5-3.4s3.5,1.5,3.5,3.4C78.3,77.5,76.7,79,74.8,79z"/></svg>