<?xml version="1.0" encoding="UTF-8" standalone="no"?>
<!-- Created with Inkscape (http://www.inkscape.org/) -->

<svg
   xmlns:dc="http://purl.org/dc/elements/1.1/"
   xmlns:cc="http://creativecommons.org/ns#"
   xmlns:rdf="http://www.w3.org/1999/02/22-rdf-syntax-ns#"
   xmlns:svg="http://www.w3.org/2000/svg"
   xmlns="http://www.w3.org/2000/svg"
   xmlns:sodipodi="http://sodipodi.sourceforge.net/DTD/sodipodi-0.dtd"
   xmlns:inkscape="http://www.inkscape.org/namespaces/inkscape"
   width="328.50665mm"
   height="138.85333mm"
   viewBox="0 0 1164 491.99999"
   id="svg2"
   version="1.1"
   inkscape:version="0.91 r13725"
   sodipodi:docname="M-404 (cajetín).svg">
  <defs
     id="defs4" />
  <sodipodi:namedview
     id="base"
     pagecolor="#ffffff"
     bordercolor="#666666"
     borderopacity="1.0"
     inkscape:pageopacity="0.0"
     inkscape:pageshadow="2"
     inkscape:zoom="0.12374369"
     inkscape:cx="2098.5629"
     inkscape:cy="-584.27896"
     inkscape:document-units="px"
     inkscape:current-layer="layer1"
     showgrid="false"
     fit-margin-top="0"
     fit-margin-left="0"
     fit-margin-right="0"
     fit-margin-bottom="0"
     inkscape:window-width="1301"
     inkscape:window-height="744"
     inkscape:window-x="65"
     inkscape:window-y="24"
     inkscape:window-maximized="1" />
  <metadata
     id="metadata7">
    <rdf:RDF>
      <cc:Work
         rdf:about="">
        <dc:format>image/svg+xml</dc:format>
        <dc:type
           rdf:resource="http://purl.org/dc/dcmitype/StillImage" />
        <dc:title></dc:title>
      </cc:Work>
    </rdf:RDF>
  </metadata>
  <g
     inkscape:label="Capa 1"
     inkscape:groupmode="layer"
     id="layer1"
     transform="translate(163.46898,-622.67698)">
    <g
       transform="matrix(1.2801044,0,0,1.2801044,775.67003,202.97204)"
       style="font-style:normal;font-weight:normal;font-size:299.21166992px;line-height:125%;font-family:sans-serif;text-align:center;letter-spacing:0px;word-spacing:0px;text-anchor:middle;fill:#000000;fill-opacity:1;stroke:none;stroke-width:1px;stroke-linecap:butt;stroke-linejoin:miter;stroke-opacity:1"
       id="flowRoot4137-2" />
    <path
       inkscape:connector-curvature="0"
       style="fill:#000000;fill-opacity:1;stroke:none;stroke-width:1;stroke-linecap:round;stroke-miterlimit:4;stroke-dasharray:1, 2;stroke-dashoffset:0"
       d="m -29.468975,622.67698 c -74.006155,0 -133.999985,59.99382 -134.000005,134 l 0,224 c 3e-5,74.00622 59.99386,134.00002 134.000005,134.00002 l 895.999995,0 c 74.0062,0 133.99998,-59.9938 133.99998,-134.00002 l 0,-224 c 0,-74.00618 -59.99378,-134 -133.99998,-134 l -895.999995,0 z"
       id="rect4145-1-3" />
    <path
       inkscape:connector-curvature="0"
       style="fill:#ffffff;fill-opacity:1;stroke:none;stroke-width:1;stroke-linecap:round;stroke-miterlimit:4;stroke-dasharray:1, 2;stroke-dashoffset:0"
       d="m -29.468975,630.67698 c -69.58787,0 -125.999995,56.41213 -126.000005,126 l 0,224 c 2e-5,69.58792 56.412145,126.00002 126.000005,126.00002 l 895.999995,0 c 69.5879,0 126,-56.4121 126,-126.00002 l 0,-224 c 0,-69.58787 -56.4121,-126 -126,-126 l -895.999995,0 z"
       id="rect4459-6" />
    <path
       inkscape:connector-curvature="0"
       style="fill:#007656;fill-opacity:1;stroke:none;stroke-width:1;stroke-linecap:round;stroke-miterlimit:4;stroke-dasharray:1, 2;stroke-dashoffset:0"
       d="m -29.468975,644.67698 c -61.85588,0 -111.999995,50.1441 -112.000005,112 l 0,224 A 112,112.00002 0 0 0 -29.468975,1092.677 l 895.999995,0 c 61.8559,0 112,-50.1441 112,-112.00002 l 0,-224 c 0,-61.8559 -50.1441,-112 -112,-112 l -895.999995,0 z"
       id="path4148-7" />
    <path
       inkscape:connector-curvature="0"
       style="fill:#ffffff;fill-opacity:1;stroke:#000000;stroke-width:6;stroke-linecap:round;stroke-miterlimit:4;stroke-dasharray:6, 12;stroke-dashoffset:0"
       d="m 103.01872,745.03556 101.14424,0 0,52.24669 -101.14424,0 z"
       id="rect4545-5" />
    <path
       style="fill:#ed2e38;fill-opacity:1;stroke:#000000;stroke-width:2;stroke-miterlimit:4;stroke-dasharray:none"
       d="m -85.468975,868.66622 0,-132.91736 56.52657,0 56.52655,0 0.47604,1.89882 c 0.26182,1.04434 8.55188,35.97392 18.4223,77.62128 9.87049,41.64734 18.20814,75.98434 18.52823,76.30441 0.32009,0.32008 0.6993,0.42371 0.8427,0.23032 0.1434,-0.19341 8.15368,-33.77085 17.80063,-74.61657 9.64695,-40.84572 17.929505,-75.87895 18.405685,-77.8516 l 0.86579,-3.58666 56.8644,0 56.8644,0 0,132.91736 0,132.91738 -37.55444,0 -37.55442,0 0,-85.23592 c 0,-52.1554 -0.3055,-85.23591 -0.78708,-85.23591 -0.43289,0 -0.98839,0.66458 -1.23455,1.47687 -0.49797,1.64328 -43.096765,162.99374 -44.007235,166.68494 l -0.57509,2.33152 -29.65359,-0.2216 -29.65358,-0.2218 -22.36428,-84.5357 C 0.96971472,870.13142 -9.3790753,831.80691 -9.7271653,831.46043 c -0.3480997,-0.34648 -0.6329397,37.7895 -0.6329397,84.74659 l 0,85.37658 -37.55444,0 -37.55443,0 z"
       id="path4219-3"
       inkscape:connector-curvature="0"
       sodipodi:nodetypes="ccccssscsscccccccsssscccscscccc" />
    <path
       inkscape:connector-curvature="0"
       style="fill:#ffffff;stroke:#000000;stroke-width:2;stroke-miterlimit:4;stroke-dasharray:none"
       d="m 121.87566,753.01403 -2.38679,7.54195 -7.83133,0 6.38395,4.57377 -2.24804,7.10407 6.0366,-4.3901 6.12783,4.3901 -2.27585,-7.19172 6.16847,-4.48612 -7.58805,0 -2.38679,-7.54195 z m 24.32885,0 -2.38679,7.54195 -7.83132,0 6.38395,4.57377 -2.24805,7.10407 6.0366,-4.3901 6.12784,4.3901 -2.27584,-7.19172 6.16845,-4.48612 -7.58804,0 -2.3868,-7.54195 z m 24.32887,0 -2.38679,7.54195 -7.83133,0 6.38395,4.57377 -2.24804,7.10407 6.03659,-4.3901 6.12783,4.3901 -2.27583,-7.19172 6.16845,-4.48612 -7.58804,0 -2.38679,-7.54195 z m 24.32886,0 -2.3868,7.54195 -7.83132,0 6.38394,4.57377 -2.24803,7.10407 6.03659,-4.3901 6.12784,4.3901 -2.27585,-7.19172 6.16846,-4.48612 -7.58804,0 -2.38679,-7.54195 z m -60.82215,17.03021 -2.38679,7.54195 -7.83133,0 6.38395,4.57377 -2.24804,7.10407 6.03659,-4.3901 6.12783,4.3901 -2.27583,-7.19172 6.16845,-4.48612 -7.58803,0 -2.3868,-7.54195 z m 24.32886,0 -2.3868,7.54195 -7.83132,0 6.38395,4.57377 -2.24804,7.10407 6.0366,-4.3901 6.12783,4.3901 -2.27585,-7.19172 6.16847,-4.48612 -7.58805,0 -2.38679,-7.54195 z m 24.32885,0 -2.38679,7.54195 -7.83131,0 6.38394,4.57377 -2.24805,7.10407 6.0366,-4.3901 6.12784,4.3901 -2.27584,-7.19172 6.16845,-4.48612 -7.58804,0 -2.3868,-7.54195 z"
       id="s-5" />
    <g
       transform="translate(266.9505,729.57645)"
       style="font-style:normal;font-weight:normal;font-size:383.02157593px;line-height:125%;font-family:sans-serif;text-align:center;letter-spacing:0px;word-spacing:0px;text-anchor:middle;fill:#000000;fill-opacity:1;stroke:none;stroke-width:1px;stroke-linecap:butt;stroke-linejoin:miter;stroke-opacity:1"
       id="flowRoot4137">
      <path
         d="m 107.8562,84.136938 -66.262731,89.627052 66.262731,0 0,-89.627052 z m 90.77612,144.399132 -30.64173,0 0,38.30216 -60.13439,0 0,-38.30216 -136.35568,0 0,-54.77208 124.86504,-162.401151 71.62503,0 0,162.401151 30.64173,0 0,54.77208 z"
         style="font-style:normal;font-variant:normal;font-weight:normal;font-stretch:normal;font-family:TrafficTypeW01-SpainD;-inkscape-font-specification:TrafficTypeW01-SpainD;fill:#ffffff"
         id="path4265"
         inkscape:connector-curvature="0" />
      <path
         d="m 317.24667,63.453773 q -14.1718,0 -26.04547,7.27741 -11.49064,7.27741 -16.85294,19.534101 -3.4472,8.043453 -4.97929,18.385036 -1.14906,10.34158 -1.14906,30.2587 0,20.30015 1.14906,30.64173 1.53209,10.34158 4.97929,18.38504 4.97928,12.25669 16.85294,19.5341 11.87367,7.27741 26.04547,7.27741 13.02274,0 24.13036,-5.74533 11.10763,-6.12834 17.23597,-16.46993 2.29813,-3.83021 3.83022,-8.42647 1.53208,-4.59626 2.29813,-10.7246 1.14906,-6.12835 1.53208,-14.1718 0.38303,-8.04346 0.38303,-18.76806 0,-13.02273 -0.76605,-22.21525 -0.38302,-9.19252 -1.53208,-16.08691 -1.14907,-6.894386 -3.4472,-11.490645 -1.91511,-4.97928 -5.3623,-9.192518 -6.51137,-8.426474 -16.85295,-13.022733 -9.95856,-4.979281 -21.44921,-4.979281 z m 0,-57.4532361 q 27.19453,0 49.79281,11.4906471 22.59827,11.490647 36.77007,32.556834 11.49065,17.618993 17.23597,39.834244 5.74532,22.215248 5.74532,50.941868 0,29.87568 -7.66043,54.38907 -7.66043,24.13035 -22.21525,41.36633 -14.1718,17.23597 -34.47194,26.42848 -20.30015,9.19252 -45.19655,9.19252 -25.27942,0 -45.57957,-9.19252 -19.91712,-9.57554 -34.08892,-26.81151 -14.17179,-17.23597 -21.83223,-41.74935 -7.66043,-24.8964 -7.66043,-55.53813 0,-30.2587 7.66043,-54.772082 7.66044,-24.896402 21.83223,-42.132373 14.1718,-17.235971 34.08892,-26.428489 20.30015,-9.5755391 45.57957,-9.5755391 z"
         style="font-style:normal;font-variant:normal;font-weight:normal;font-stretch:normal;font-family:TrafficTypeW01-SpainD;-inkscape-font-specification:TrafficTypeW01-SpainD;fill:#ffffff"
         id="path4267"
         inkscape:connector-curvature="0" />
      <path
         d="m 564.8842,84.136938 -66.26273,89.627052 66.26273,0 0,-89.627052 z m 90.77611,144.399132 -30.64172,0 0,38.30216 -60.13439,0 0,-38.30216 -136.35568,0 0,-54.77208 124.86503,-162.401151 71.62504,0 0,162.401151 30.64172,0 0,54.77208 z"
         style="font-style:normal;font-variant:normal;font-weight:normal;font-stretch:normal;font-family:TrafficTypeW01-SpainD;-inkscape-font-specification:TrafficTypeW01-SpainD;fill:#ffffff"
         id="path4269"
         inkscape:connector-curvature="0" />
    </g>
  </g>
</svg>
