<?xml version="1.0" encoding="utf-8"?>
<!-- Generator: Adobe Illustrator 23.0.1, SVG Export Plug-In . SVG Version: 6.00 Build 0)  -->
<svg version="1.1" id="Capa_1" focusable="false" xmlns="http://www.w3.org/2000/svg" xmlns:xlink="http://www.w3.org/1999/xlink"
	 x="0px" y="0px" viewBox="0 0 512 512" style="enable-background:new 0 0 512 512;" xml:space="preserve">
<style type="text/css">
	.st0{fill:#FFA600;}
</style>
<path class="st0" d="M336,448H16c-8.8,0-16,7.2-16,16v32c0,8.8,7.2,16,16,16h320c8.8,0,16-7.2,16-16v-32
	C352,455.2,344.8,448,336,448z M493.2,107.3l-81-81c-6.2-6.2-16.4-6.2-22.6,0l-11.3,11.3c-6.2,6.2-6.2,16.4,0,22.6L416,97.9V160
	c0,28.1,20.9,51.3,48,55.2V376c0,13.2-10.8,24-24,24s-24-10.8-24-24v-32c0-48.6-39.4-88-88-88h-8V64c0-35.3-28.7-64-64-64H96
	C60.7,0,32,28.7,32,64v352h288V304h8c22.1,0,40,17.9,40,40v27.8c0,37.7,27,72,64.5,75.9c43,4.3,79.5-29.5,79.5-71.7V152.6
	C512,135.6,505.2,119.3,493.2,107.3L493.2,107.3z M256,192H96V64h160V192z"/>
</svg>
