<?xml version="1.0" encoding="utf-8"?>
<!-- Generator: Adobe Illustrator 23.0.1, SVG Export Plug-In . SVG Version: 6.00 Build 0)  -->
<svg version="1.1" id="Capa_1" focusable="false" xmlns="http://www.w3.org/2000/svg" xmlns:xlink="http://www.w3.org/1999/xlink"
	 x="0px" y="0px" viewBox="0 0 512 512" style="enable-background:new 0 0 512 512;" xml:space="preserve">
<style type="text/css">
	.st0{fill:#49A09D;}
</style>
<path class="st0" d="M461.2,128H80c-8.8,0-16-7.2-16-16s7.2-16,16-16h384c8.8,0,16-7.2,16-16c0-26.5-21.5-48-48-48H64
	C28.6,32,0,60.7,0,96v320c0,35.4,28.6,64,64,64h397.2c28,0,50.8-21.5,50.8-48V176C512,149.5,489.2,128,461.2,128z M416,336
	c-17.7,0-32-14.3-32-32s14.3-32,32-32s32,14.3,32,32S433.7,336,416,336z"/>
</svg>
